<svg id="svg" version="1.1" width="400" height="115.91448931116389" viewBox="0 0 400 115.91448931116389" xmlns="http://www.w3.org/2000/svg" xmlns:xlink="http://www.w3.org/1999/xlink" ><g id="svgg"><path id="path0" d="M346.333 0.167 C 346.333 0.259,345.892 0.333,345.343 0.333 C 344.799 0.333,344.307 0.408,344.250 0.500 C 344.193 0.592,343.887 0.667,343.568 0.667 C 343.208 0.667,342.953 0.761,342.894 0.917 C 342.839 1.059,342.590 1.167,342.316 1.167 C 341.998 1.167,341.833 1.252,341.833 1.417 C 341.833 1.583,341.667 1.667,341.333 1.667 C 341.000 1.667,340.833 1.750,340.833 1.917 C 340.833 2.072,340.676 2.167,340.417 2.167 C 340.172 2.167,340.000 2.262,340.000 2.399 C 340.000 2.526,339.813 2.678,339.583 2.735 C 339.354 2.793,339.167 2.913,339.167 3.003 C 339.167 3.093,339.077 3.167,338.968 3.167 C 338.698 3.167,337.500 4.470,337.500 4.764 C 337.500 4.894,337.425 5.000,337.333 5.000 C 337.242 5.000,337.167 5.112,337.167 5.250 C 337.167 5.388,337.054 5.500,336.917 5.500 C 336.750 5.500,336.667 5.667,336.667 6.000 C 336.667 6.333,336.583 6.500,336.417 6.500 C 336.236 6.500,336.167 6.685,336.167 7.167 C 336.167 7.648,336.097 7.833,335.917 7.833 C 335.722 7.833,335.667 8.056,335.667 8.833 C 335.667 9.611,335.611 9.833,335.417 9.833 C 335.199 9.833,335.167 10.574,335.167 15.500 L 335.167 21.167 329.917 21.167 L 324.667 21.167 324.667 24.238 C 324.667 28.250,324.028 27.833,330.179 27.833 L 335.167 27.833 335.167 47.899 C 335.167 66.042,335.192 67.974,335.430 68.066 C 336.076 68.313,343.917 68.173,344.296 67.907 L 344.667 67.648 344.667 47.741 L 344.667 27.833 351.792 27.817 C 355.710 27.808,359.104 27.748,359.333 27.684 L 359.750 27.569 359.795 24.368 L 359.841 21.167 352.254 21.167 L 344.667 21.167 344.672 15.958 C 344.676 11.643,344.719 10.695,344.922 10.426 C 345.057 10.249,345.167 9.939,345.167 9.739 C 345.167 9.538,345.279 9.281,345.417 9.167 C 345.554 9.053,345.667 8.818,345.667 8.646 C 345.667 8.474,345.742 8.333,345.833 8.333 C 345.925 8.333,346.000 8.221,346.000 8.083 C 346.000 7.946,346.113 7.833,346.250 7.833 C 346.387 7.833,346.500 7.721,346.500 7.583 C 346.500 7.417,346.667 7.333,347.000 7.333 C 347.333 7.333,347.500 7.250,347.500 7.083 C 347.500 6.916,347.667 6.833,348.005 6.833 C 348.301 6.833,348.550 6.729,348.606 6.583 C 348.680 6.392,348.993 6.333,349.934 6.333 C 350.645 6.333,351.167 6.263,351.167 6.167 C 351.167 6.063,352.111 6.000,353.667 6.000 C 355.222 6.000,356.167 6.063,356.167 6.167 C 356.167 6.270,357.056 6.333,358.500 6.333 L 360.833 6.333 360.833 3.430 C 360.833 1.834,360.788 0.409,360.732 0.264 C 360.611 -0.053,346.333 -0.149,346.333 0.167 M23.227 4.750 C 23.150 4.950,22.787 5.000,21.419 5.000 C 20.101 5.000,19.660 5.057,19.500 5.250 C 19.359 5.420,18.980 5.500,18.313 5.500 C 17.553 5.500,17.333 5.556,17.333 5.750 C 17.333 5.939,17.129 6.000,16.495 6.000 C 15.903 6.000,15.628 6.074,15.560 6.250 C 15.506 6.391,15.258 6.500,14.992 6.500 C 14.732 6.500,14.473 6.575,14.417 6.667 C 14.360 6.758,14.136 6.833,13.919 6.833 C 13.702 6.833,13.421 6.936,13.296 7.061 C 13.170 7.187,12.903 7.342,12.701 7.406 C 12.499 7.470,12.333 7.592,12.333 7.678 C 12.333 7.763,12.183 7.833,12.000 7.833 C 11.815 7.833,11.667 7.944,11.667 8.083 C 11.667 8.221,11.554 8.333,11.417 8.333 C 11.279 8.333,11.167 8.446,11.167 8.583 C 11.167 8.721,11.072 8.833,10.957 8.833 C 10.658 8.833,9.833 9.633,9.833 9.923 C 9.833 10.057,9.721 10.167,9.583 10.167 C 9.446 10.167,9.333 10.279,9.333 10.417 C 9.333 10.554,9.221 10.667,9.083 10.667 C 8.946 10.667,8.833 10.771,8.833 10.899 C 8.833 11.027,8.721 11.174,8.583 11.227 C 8.446 11.280,8.333 11.505,8.333 11.727 C 8.333 11.949,8.221 12.174,8.083 12.227 C 7.946 12.280,7.833 12.506,7.833 12.731 C 7.833 12.955,7.759 13.164,7.669 13.194 C 7.143 13.372,6.643 29.167,7.163 29.167 C 7.257 29.167,7.333 29.499,7.333 29.905 C 7.333 30.339,7.436 30.746,7.583 30.893 C 7.721 31.030,7.833 31.304,7.833 31.500 C 7.833 31.696,7.946 31.970,8.083 32.107 C 8.221 32.245,8.333 32.502,8.333 32.679 C 8.333 32.855,8.446 33.000,8.583 33.000 C 8.738 33.000,8.833 33.156,8.833 33.408 C 8.833 33.633,8.933 33.877,9.054 33.950 C 9.176 34.023,9.325 34.196,9.387 34.333 C 9.802 35.266,10.839 36.299,11.833 36.773 C 11.971 36.838,12.143 36.991,12.217 37.112 C 12.290 37.234,12.534 37.333,12.758 37.333 C 12.983 37.333,13.167 37.408,13.167 37.500 C 13.167 37.592,13.346 37.667,13.566 37.667 C 13.785 37.667,14.008 37.779,14.060 37.917 C 14.124 38.082,14.385 38.167,14.828 38.167 C 15.314 38.167,15.500 38.236,15.500 38.417 C 15.500 38.609,15.714 38.667,16.429 38.667 C 17.032 38.667,17.445 38.754,17.607 38.917 C 17.809 39.119,18.385 39.167,20.607 39.167 C 22.829 39.167,23.405 39.215,23.607 39.417 C 23.820 39.630,24.743 39.667,29.827 39.667 C 34.981 39.667,35.811 39.701,35.894 39.917 C 35.956 40.080,36.216 40.167,36.644 40.167 C 37.071 40.167,37.331 40.253,37.394 40.417 C 37.446 40.554,37.648 40.667,37.841 40.667 C 38.201 40.667,39.667 41.995,39.667 42.320 C 39.667 42.419,39.779 42.500,39.917 42.500 C 40.082 42.500,40.167 42.665,40.167 42.988 C 40.167 43.257,40.279 43.589,40.417 43.726 C 40.630 43.939,40.667 44.885,40.667 50.155 C 40.667 55.536,40.634 56.333,40.417 56.333 C 40.250 56.333,40.167 56.500,40.167 56.833 C 40.167 57.108,40.097 57.333,40.011 57.333 C 39.926 57.333,39.806 57.491,39.745 57.683 C 39.617 58.086,39.079 58.667,38.833 58.667 C 38.742 58.667,38.667 58.779,38.667 58.917 C 38.667 59.072,38.509 59.167,38.250 59.167 C 37.991 59.167,37.833 59.261,37.833 59.417 C 37.833 59.583,37.667 59.667,37.333 59.667 C 37.058 59.667,36.833 59.742,36.833 59.833 C 36.833 59.925,36.539 60.000,36.179 60.000 C 35.818 60.000,35.411 60.113,35.274 60.250 C 35.108 60.416,34.693 60.500,34.044 60.500 C 33.440 60.500,32.939 60.594,32.740 60.745 C 32.253 61.113,22.261 61.118,21.893 60.750 C 21.701 60.558,21.217 60.500,19.810 60.500 C 18.402 60.500,17.918 60.442,17.726 60.250 C 17.546 60.070,17.108 60.000,16.165 60.000 C 15.443 60.000,14.807 59.925,14.750 59.833 C 14.693 59.742,14.097 59.667,13.425 59.667 C 12.492 59.667,12.180 59.607,12.106 59.417 C 12.034 59.227,11.727 59.167,10.839 59.167 C 9.908 59.167,9.667 59.115,9.667 58.917 C 9.667 58.725,9.454 58.667,8.750 58.667 L 7.833 58.667 7.833 62.917 L 7.833 67.167 8.316 67.167 C 8.590 67.167,8.839 67.274,8.894 67.417 C 8.971 67.618,9.346 67.667,10.810 67.667 C 12.275 67.667,12.650 67.716,12.727 67.917 C 12.805 68.121,13.226 68.168,15.036 68.172 C 16.718 68.176,17.328 68.236,17.574 68.422 C 18.058 68.788,34.442 68.788,34.926 68.422 C 35.140 68.260,35.662 68.175,36.464 68.172 C 37.385 68.168,37.700 68.106,37.773 67.917 C 37.842 67.737,38.123 67.667,38.768 67.667 C 39.456 67.667,39.667 67.608,39.667 67.417 C 39.667 67.232,39.859 67.167,40.399 67.167 C 40.896 67.167,41.162 67.086,41.227 66.917 C 41.287 66.760,41.542 66.667,41.911 66.667 C 42.323 66.667,42.500 66.592,42.500 66.417 C 42.500 66.250,42.667 66.167,43.000 66.167 C 43.333 66.167,43.500 66.083,43.500 65.917 C 43.500 65.779,43.644 65.667,43.820 65.667 C 44.181 65.667,45.164 65.149,45.166 64.958 C 45.166 64.890,45.317 64.833,45.500 64.833 C 45.685 64.833,45.833 64.722,45.833 64.583 C 45.833 64.446,45.946 64.333,46.083 64.333 C 46.221 64.333,46.333 64.221,46.333 64.083 C 46.333 63.946,46.446 63.833,46.583 63.833 C 46.721 63.833,46.833 63.721,46.833 63.583 C 46.833 63.446,46.946 63.333,47.083 63.333 C 47.221 63.333,47.333 63.221,47.333 63.083 C 47.333 62.946,47.408 62.833,47.500 62.833 C 47.592 62.833,47.667 62.729,47.667 62.601 C 47.667 62.473,47.779 62.326,47.917 62.273 C 48.054 62.220,48.167 62.025,48.167 61.839 C 48.167 61.649,48.276 61.500,48.417 61.500 C 48.583 61.500,48.667 61.333,48.667 61.000 C 48.667 60.667,48.750 60.500,48.917 60.500 C 49.083 60.500,49.167 60.333,49.167 60.000 C 49.167 59.667,49.250 59.500,49.417 59.500 C 49.596 59.500,49.667 59.317,49.667 58.851 C 49.667 58.428,49.754 58.169,49.917 58.106 C 50.093 58.039,50.167 57.763,50.167 57.166 C 50.167 56.688,50.278 56.152,50.422 55.932 C 50.765 55.408,50.720 41.823,50.375 41.708 C 50.242 41.664,50.167 41.309,50.167 40.731 C 50.167 40.078,50.097 39.796,49.917 39.727 C 49.762 39.668,49.667 39.414,49.667 39.060 C 49.667 38.707,49.572 38.453,49.417 38.394 C 49.279 38.341,49.167 38.116,49.167 37.894 C 49.167 37.671,49.061 37.449,48.932 37.399 C 48.802 37.350,48.651 37.127,48.595 36.905 C 48.539 36.682,48.420 36.500,48.330 36.500 C 48.240 36.500,48.167 36.350,48.167 36.167 C 48.167 35.981,48.056 35.833,47.917 35.833 C 47.779 35.833,47.667 35.753,47.667 35.655 C 47.667 35.424,47.243 35.000,47.012 35.000 C 46.914 35.000,46.833 34.887,46.833 34.750 C 46.833 34.612,46.729 34.500,46.601 34.500 C 46.473 34.500,46.326 34.387,46.273 34.250 C 46.220 34.112,45.987 34.000,45.755 34.000 C 45.491 34.000,45.333 33.906,45.333 33.750 C 45.333 33.597,45.178 33.500,44.934 33.500 C 44.715 33.500,44.492 33.388,44.440 33.250 C 44.376 33.085,44.115 33.000,43.672 33.000 C 43.186 33.000,43.000 32.931,43.000 32.750 C 43.000 32.568,42.808 32.499,42.292 32.495 C 41.902 32.492,41.438 32.379,41.260 32.245 C 41.036 32.075,40.511 32.000,39.551 32.000 C 38.739 32.000,38.167 31.931,38.167 31.833 C 38.167 31.725,35.444 31.667,30.333 31.667 C 23.481 31.667,22.500 31.635,22.500 31.417 C 22.500 31.218,22.259 31.167,21.333 31.167 C 20.407 31.167,20.167 31.115,20.167 30.917 C 20.167 30.750,20.000 30.667,19.667 30.667 C 19.333 30.667,19.167 30.583,19.167 30.417 C 19.167 30.261,19.009 30.167,18.750 30.167 C 18.491 30.167,18.333 30.072,18.333 29.917 C 18.333 29.779,18.221 29.667,18.083 29.667 C 17.946 29.667,17.833 29.554,17.833 29.417 C 17.833 29.279,17.721 29.167,17.583 29.167 C 17.428 29.167,17.333 29.009,17.333 28.750 C 17.333 28.491,17.239 28.333,17.083 28.333 C 16.898 28.333,16.833 28.139,16.833 27.583 C 16.833 27.028,16.769 26.833,16.583 26.833 C 16.367 26.833,16.333 26.224,16.333 22.351 C 16.333 18.521,16.370 17.855,16.583 17.773 C 16.753 17.708,16.833 17.442,16.833 16.942 C 16.833 16.492,16.930 16.127,17.083 16.000 C 17.221 15.886,17.333 15.649,17.333 15.474 C 17.333 15.299,17.446 15.113,17.583 15.060 C 17.721 15.008,17.833 14.860,17.833 14.732 C 17.833 14.604,17.946 14.500,18.083 14.500 C 18.221 14.500,18.333 14.387,18.333 14.250 C 18.333 14.112,18.446 14.000,18.583 14.000 C 18.721 14.000,18.833 13.887,18.833 13.750 C 18.833 13.594,18.991 13.500,19.250 13.500 C 19.509 13.500,19.667 13.406,19.667 13.250 C 19.667 13.083,19.833 13.000,20.167 13.000 C 20.500 13.000,20.667 12.917,20.667 12.750 C 20.667 12.558,20.880 12.500,21.583 12.500 C 22.087 12.500,22.500 12.425,22.500 12.333 C 22.500 12.235,23.107 12.167,23.988 12.167 C 25.089 12.167,25.541 12.102,25.726 11.917 C 26.093 11.550,34.588 11.555,35.074 11.922 C 35.319 12.107,35.912 12.167,37.522 12.167 C 38.759 12.167,39.690 12.236,39.750 12.333 C 39.808 12.428,40.635 12.500,41.659 12.500 C 43.110 12.500,43.483 12.549,43.560 12.750 C 43.638 12.953,44.033 13.000,45.661 13.000 L 47.667 13.000 47.667 9.250 L 47.667 5.500 46.821 5.500 C 46.292 5.500,45.883 5.406,45.726 5.250 C 45.527 5.051,44.985 5.000,43.060 5.000 C 41.134 5.000,40.592 4.949,40.393 4.750 C 40.177 4.534,38.986 4.500,31.733 4.500 C 24.411 4.500,23.310 4.532,23.227 4.750 M237.895 4.746 C 237.817 4.950,237.475 5.000,236.161 5.000 C 234.928 5.000,234.462 5.062,234.274 5.250 C 234.111 5.412,233.698 5.500,233.095 5.500 C 232.381 5.500,232.167 5.558,232.167 5.750 C 232.167 5.941,231.956 6.000,231.268 6.000 C 230.623 6.000,230.342 6.071,230.273 6.250 C 230.218 6.395,229.968 6.500,229.682 6.500 C 229.409 6.500,229.145 6.566,229.095 6.648 C 229.045 6.729,228.740 6.845,228.419 6.905 C 228.097 6.966,227.833 7.078,227.833 7.155 C 227.833 7.232,227.702 7.342,227.542 7.400 C 226.819 7.661,226.000 8.328,226.000 8.655 C 226.000 8.753,225.890 8.833,225.756 8.833 C 225.476 8.833,224.500 9.736,224.500 9.994 C 224.500 10.089,224.387 10.167,224.250 10.167 C 224.112 10.167,224.000 10.279,224.000 10.417 C 224.000 10.554,223.904 10.667,223.787 10.667 C 223.670 10.667,223.427 11.003,223.246 11.415 C 223.065 11.827,222.860 12.164,222.792 12.165 C 222.723 12.166,222.667 12.384,222.667 12.649 C 222.667 12.924,222.559 13.172,222.417 13.227 C 222.258 13.288,222.167 13.543,222.167 13.923 C 222.167 14.254,222.054 14.636,221.917 14.774 C 221.702 14.988,221.667 16.032,221.667 22.095 C 221.667 28.270,221.698 29.167,221.917 29.167 C 222.108 29.167,222.167 29.378,222.167 30.066 C 222.167 30.711,222.237 30.991,222.417 31.060 C 222.554 31.113,222.667 31.342,222.667 31.568 C 222.667 31.795,222.742 32.027,222.833 32.083 C 222.925 32.140,223.000 32.369,223.000 32.593 C 223.000 32.844,223.096 33.000,223.250 33.000 C 223.406 33.000,223.500 33.158,223.500 33.422 C 223.500 33.654,223.612 33.887,223.750 33.940 C 223.887 33.992,224.000 34.123,224.000 34.231 C 224.000 34.338,224.225 34.672,224.500 34.973 C 224.775 35.274,225.000 35.591,225.000 35.677 C 225.000 35.763,225.112 35.833,225.250 35.833 C 225.387 35.833,225.500 35.946,225.500 36.083 C 225.500 36.221,225.642 36.333,225.816 36.333 C 225.989 36.333,226.174 36.446,226.227 36.583 C 226.280 36.721,226.430 36.833,226.560 36.833 C 226.691 36.833,226.841 36.946,226.894 37.083 C 226.946 37.221,227.179 37.333,227.411 37.333 C 227.643 37.333,227.833 37.408,227.833 37.500 C 227.833 37.592,228.058 37.667,228.333 37.667 C 228.667 37.667,228.833 37.750,228.833 37.917 C 228.833 38.096,229.017 38.167,229.482 38.167 C 229.905 38.167,230.164 38.254,230.227 38.417 C 230.295 38.594,230.571 38.667,231.173 38.667 C 231.707 38.667,232.117 38.760,232.274 38.917 C 232.477 39.120,233.067 39.167,235.411 39.167 C 237.823 39.167,238.313 39.208,238.394 39.417 C 238.476 39.633,239.320 39.667,244.578 39.667 C 249.879 39.667,250.667 39.699,250.667 39.917 C 250.667 40.092,250.844 40.167,251.262 40.167 C 251.589 40.167,251.970 40.279,252.107 40.417 C 252.245 40.554,252.502 40.667,252.679 40.667 C 252.855 40.667,253.000 40.742,253.000 40.833 C 253.000 40.925,253.112 41.000,253.250 41.000 C 253.387 41.000,253.500 41.112,253.500 41.250 C 253.500 41.387,253.612 41.500,253.750 41.500 C 253.887 41.500,254.000 41.612,254.000 41.750 C 254.000 41.887,254.112 42.000,254.250 42.000 C 254.387 42.000,254.500 42.112,254.500 42.250 C 254.500 42.387,254.565 42.500,254.645 42.500 C 254.725 42.500,254.839 42.800,254.897 43.167 C 254.956 43.533,255.078 43.833,255.169 43.833 C 255.468 43.833,255.385 56.139,255.083 56.440 C 254.946 56.578,254.833 56.835,254.833 57.012 C 254.833 57.189,254.758 57.333,254.667 57.333 C 254.575 57.333,254.500 57.521,254.500 57.750 C 254.500 58.009,254.406 58.167,254.250 58.167 C 254.112 58.167,254.000 58.279,254.000 58.417 C 254.000 58.554,253.887 58.667,253.750 58.667 C 253.612 58.667,253.500 58.779,253.500 58.917 C 253.500 59.083,253.333 59.167,253.000 59.167 C 252.667 59.167,252.500 59.250,252.500 59.417 C 252.500 59.571,252.344 59.667,252.093 59.667 C 251.869 59.667,251.640 59.742,251.583 59.833 C 251.527 59.925,251.194 60.000,250.844 60.000 C 250.482 60.000,250.118 60.108,250.000 60.250 C 249.856 60.424,249.472 60.500,248.741 60.500 C 248.029 60.500,247.610 60.581,247.440 60.750 C 247.067 61.124,237.100 61.124,236.726 60.750 C 236.532 60.556,236.035 60.500,234.506 60.500 C 232.908 60.500,232.518 60.453,232.440 60.250 C 232.366 60.057,232.042 60.000,231.015 60.000 C 230.284 60.000,229.640 59.925,229.583 59.833 C 229.527 59.742,228.885 59.667,228.157 59.667 C 227.091 59.667,226.833 59.618,226.833 59.417 C 226.833 59.219,226.595 59.167,225.684 59.167 C 224.817 59.167,224.512 59.105,224.440 58.917 C 224.372 58.740,224.097 58.667,223.505 58.667 L 222.667 58.667 222.667 62.917 L 222.667 67.167 223.066 67.167 C 223.285 67.167,223.508 67.279,223.560 67.417 C 223.637 67.617,224.006 67.667,225.423 67.667 C 226.772 67.667,227.250 67.726,227.440 67.917 C 227.637 68.113,228.153 68.167,229.857 68.167 C 231.561 68.167,232.077 68.220,232.274 68.417 C 232.651 68.793,249.349 68.793,249.726 68.417 C 249.901 68.241,250.330 68.167,251.160 68.167 C 252.059 68.167,252.367 68.106,252.440 67.917 C 252.509 67.737,252.789 67.667,253.434 67.667 C 254.122 67.667,254.333 67.608,254.333 67.417 C 254.333 67.232,254.526 67.167,255.066 67.167 C 255.563 67.167,255.828 67.086,255.894 66.917 C 255.954 66.760,256.209 66.667,256.578 66.667 C 256.990 66.667,257.167 66.592,257.167 66.417 C 257.167 66.250,257.333 66.167,257.667 66.167 C 258.000 66.167,258.167 66.083,258.167 65.917 C 258.167 65.750,258.333 65.667,258.667 65.667 C 258.942 65.667,259.167 65.609,259.167 65.540 C 259.167 65.412,259.661 65.111,260.208 64.904 C 260.369 64.844,260.500 64.691,260.500 64.564 C 260.500 64.437,260.612 64.333,260.750 64.333 C 260.887 64.333,261.000 64.221,261.000 64.083 C 261.000 63.946,261.112 63.833,261.250 63.833 C 261.387 63.833,261.500 63.721,261.500 63.583 C 261.500 63.446,261.612 63.333,261.750 63.333 C 261.887 63.333,262.000 63.221,262.000 63.083 C 262.000 62.946,262.112 62.833,262.250 62.833 C 262.387 62.833,262.500 62.721,262.500 62.583 C 262.500 62.446,262.574 62.333,262.663 62.333 C 262.753 62.333,262.873 62.151,262.929 61.929 C 262.984 61.706,263.136 61.484,263.265 61.434 C 263.394 61.384,263.500 61.154,263.500 60.922 C 263.500 60.690,263.575 60.500,263.667 60.500 C 263.758 60.500,263.833 60.275,263.833 60.000 C 263.833 59.667,263.917 59.500,264.083 59.500 C 264.264 59.500,264.333 59.315,264.333 58.833 C 264.333 58.352,264.403 58.167,264.583 58.167 C 264.777 58.167,264.833 57.947,264.833 57.187 C 264.833 56.520,264.913 56.141,265.083 56.000 C 265.298 55.822,265.333 54.813,265.333 48.808 C 265.333 42.753,265.300 41.810,265.083 41.727 C 264.904 41.658,264.833 41.377,264.833 40.727 C 264.833 40.077,264.763 39.796,264.583 39.727 C 264.420 39.664,264.333 39.405,264.333 38.982 C 264.333 38.517,264.263 38.333,264.083 38.333 C 263.917 38.333,263.833 38.167,263.833 37.833 C 263.833 37.558,263.767 37.333,263.686 37.333 C 263.605 37.333,263.491 37.202,263.433 37.042 C 263.165 36.298,262.049 35.000,261.679 35.000 C 261.581 35.000,261.500 34.887,261.500 34.750 C 261.500 34.612,261.387 34.500,261.250 34.500 C 261.112 34.500,261.000 34.387,261.000 34.250 C 261.000 34.097,260.845 34.000,260.601 34.000 C 260.382 34.000,260.159 33.887,260.106 33.750 C 260.054 33.612,259.821 33.500,259.589 33.500 C 259.325 33.500,259.167 33.406,259.167 33.250 C 259.167 33.065,258.972 33.000,258.417 33.000 C 257.861 33.000,257.667 32.935,257.667 32.750 C 257.667 32.568,257.474 32.499,256.958 32.495 C 256.569 32.492,256.104 32.379,255.926 32.245 C 255.707 32.078,255.189 32.000,254.311 32.000 C 253.601 32.000,252.973 31.925,252.917 31.833 C 252.850 31.726,250.052 31.667,245.068 31.667 C 238.337 31.667,237.310 31.634,237.227 31.417 C 237.156 31.231,236.861 31.167,236.083 31.167 C 235.306 31.167,235.011 31.102,234.940 30.917 C 234.887 30.779,234.662 30.667,234.440 30.667 C 234.217 30.667,233.992 30.554,233.940 30.417 C 233.887 30.279,233.654 30.167,233.422 30.167 C 233.158 30.167,233.000 30.073,233.000 29.917 C 233.000 29.779,232.887 29.667,232.750 29.667 C 232.612 29.667,232.500 29.554,232.500 29.417 C 232.500 29.279,232.387 29.167,232.250 29.167 C 232.094 29.167,232.000 29.009,232.000 28.750 C 232.000 28.521,231.925 28.333,231.833 28.333 C 231.742 28.333,231.667 28.076,231.667 27.762 C 231.667 27.448,231.554 27.078,231.417 26.940 C 231.207 26.731,231.167 25.984,231.167 22.333 C 231.167 18.683,231.207 17.936,231.417 17.726 C 231.563 17.580,231.667 17.173,231.667 16.748 C 231.667 16.347,231.742 15.973,231.833 15.917 C 231.925 15.860,232.000 15.666,232.000 15.485 C 232.000 15.304,232.112 15.113,232.250 15.060 C 232.387 15.008,232.500 14.860,232.500 14.732 C 232.500 14.604,232.612 14.500,232.750 14.500 C 232.887 14.500,233.000 14.387,233.000 14.250 C 233.000 14.112,233.112 14.000,233.250 14.000 C 233.387 14.000,233.500 13.887,233.500 13.750 C 233.500 13.597,233.655 13.500,233.899 13.500 C 234.118 13.500,234.341 13.387,234.394 13.250 C 234.446 13.112,234.679 13.000,234.911 13.000 C 235.175 13.000,235.333 12.906,235.333 12.750 C 235.333 12.558,235.545 12.500,236.240 12.500 C 236.739 12.500,237.193 12.425,237.250 12.333 C 237.307 12.242,237.972 12.167,238.728 12.167 C 239.679 12.167,240.203 12.091,240.426 11.922 C 240.905 11.560,249.262 11.560,249.740 11.922 C 249.987 12.109,250.590 12.167,252.282 12.167 C 253.650 12.167,254.500 12.231,254.500 12.333 C 254.500 12.435,255.250 12.500,256.417 12.500 C 258.009 12.500,258.333 12.542,258.333 12.750 C 258.333 12.959,258.676 13.000,260.417 13.000 L 262.500 13.000 262.500 9.250 L 262.500 5.500 261.518 5.500 C 260.799 5.500,260.510 5.433,260.440 5.250 C 260.360 5.043,259.913 5.000,257.852 5.000 C 256.007 5.000,255.343 4.946,255.292 4.792 C 255.177 4.446,238.028 4.401,237.895 4.746 M370.833 14.000 L 370.833 21.167 365.833 21.167 L 360.833 21.167 360.833 24.397 C 360.833 28.283,360.122 27.828,366.208 27.831 L 370.833 27.833 370.833 42.813 C 370.833 55.925,370.865 57.818,371.083 58.000 C 371.261 58.148,371.333 58.538,371.333 59.354 C 371.333 60.262,371.385 60.500,371.583 60.500 C 371.772 60.500,371.833 60.703,371.833 61.323 C 371.833 61.776,371.908 62.193,372.000 62.250 C 372.092 62.307,372.167 62.538,372.167 62.765 C 372.167 62.992,372.279 63.220,372.417 63.273 C 372.554 63.326,372.667 63.551,372.667 63.773 C 372.667 63.995,372.779 64.220,372.917 64.273 C 373.054 64.326,373.167 64.473,373.167 64.601 C 373.167 64.729,373.279 64.833,373.417 64.833 C 373.554 64.833,373.667 64.946,373.667 65.083 C 373.667 65.221,373.779 65.333,373.917 65.333 C 374.054 65.333,374.167 65.408,374.167 65.500 C 374.167 65.592,374.279 65.667,374.417 65.667 C 374.554 65.667,374.667 65.779,374.667 65.917 C 374.667 66.054,374.779 66.167,374.917 66.167 C 375.054 66.167,375.167 66.279,375.167 66.417 C 375.167 66.572,375.324 66.667,375.583 66.667 C 375.843 66.667,376.000 66.761,376.000 66.917 C 376.000 67.083,376.167 67.167,376.500 67.167 C 376.833 67.167,377.000 67.250,377.000 67.417 C 377.000 67.598,377.186 67.667,377.672 67.667 C 378.115 67.667,378.376 67.752,378.440 67.917 C 378.508 68.095,378.788 68.167,379.421 68.167 C 379.980 68.167,380.331 68.243,380.375 68.375 C 380.429 68.537,382.020 68.583,387.583 68.583 C 393.146 68.583,394.738 68.537,394.792 68.375 C 394.837 68.240,395.206 68.167,395.847 68.167 L 396.833 68.167 396.833 64.833 L 396.833 61.500 395.750 61.500 C 394.898 61.500,394.667 61.553,394.667 61.750 C 394.667 61.958,394.343 62.000,392.750 62.000 C 391.157 62.000,390.833 62.042,390.833 62.250 C 390.833 62.456,390.528 62.500,389.083 62.500 C 387.639 62.500,387.333 62.456,387.333 62.250 C 387.333 62.047,387.065 62.000,385.917 62.000 C 384.769 62.000,384.500 61.953,384.500 61.750 C 384.500 61.575,384.324 61.500,383.917 61.500 C 383.590 61.500,383.197 61.372,383.024 61.208 C 382.854 61.048,382.479 60.730,382.191 60.502 C 381.902 60.274,381.667 59.992,381.667 59.877 C 381.667 59.761,381.554 59.667,381.417 59.667 C 381.250 59.667,381.167 59.500,381.167 59.167 C 381.167 58.892,381.092 58.667,381.000 58.667 C 380.908 58.667,380.833 58.226,380.833 57.679 C 380.833 57.022,380.749 56.606,380.583 56.440 C 380.365 56.222,380.333 54.393,380.333 42.012 L 380.333 27.833 387.958 27.831 C 392.152 27.830,395.865 27.783,396.208 27.726 L 396.833 27.623 396.833 24.395 L 396.833 21.167 388.583 21.167 L 380.333 21.167 380.333 14.000 L 380.333 6.833 375.583 6.833 L 370.833 6.833 370.833 14.000 M80.560 20.417 C 80.488 20.605,80.183 20.667,79.316 20.667 C 78.405 20.667,78.167 20.719,78.167 20.917 C 78.167 21.106,77.962 21.167,77.328 21.167 C 76.736 21.167,76.461 21.240,76.394 21.417 C 76.339 21.559,76.090 21.667,75.816 21.667 C 75.498 21.667,75.333 21.752,75.333 21.917 C 75.333 22.083,75.167 22.167,74.833 22.167 C 74.558 22.167,74.333 22.237,74.333 22.322 C 74.333 22.408,74.188 22.524,74.010 22.580 C 73.832 22.637,73.307 23.060,72.843 23.522 L 72.000 24.361 72.000 22.764 L 72.000 21.167 67.250 21.167 L 62.500 21.167 62.500 44.417 L 62.500 67.667 67.250 67.667 L 72.000 67.667 72.000 50.155 C 72.000 34.811,72.031 32.612,72.250 32.393 C 72.387 32.255,72.500 31.922,72.500 31.651 C 72.500 31.381,72.688 30.863,72.917 30.500 C 73.146 30.137,73.333 29.780,73.333 29.707 C 73.333 29.634,73.493 29.463,73.687 29.328 C 73.882 29.194,74.139 28.990,74.259 28.875 C 74.378 28.760,74.557 28.667,74.655 28.667 C 74.753 28.667,74.833 28.554,74.833 28.417 C 74.833 28.251,74.999 28.167,75.323 28.167 C 75.593 28.167,75.860 28.092,75.917 28.000 C 75.973 27.908,76.338 27.833,76.728 27.833 C 77.118 27.833,77.582 27.723,77.760 27.589 C 78.247 27.220,88.405 27.215,88.774 27.583 C 88.911 27.721,89.239 27.833,89.502 27.833 C 89.765 27.833,90.027 27.908,90.083 28.000 C 90.140 28.092,90.369 28.167,90.593 28.167 C 90.844 28.167,91.000 28.263,91.000 28.417 C 91.000 28.554,91.099 28.667,91.219 28.667 C 91.455 28.667,92.500 29.767,92.500 30.016 C 92.500 30.099,92.575 30.167,92.667 30.167 C 92.758 30.167,92.833 30.311,92.833 30.488 C 92.833 30.665,92.946 30.922,93.083 31.060 C 93.266 31.242,93.333 31.688,93.333 32.718 C 93.333 33.764,93.397 34.179,93.583 34.333 C 93.800 34.513,93.837 36.665,93.874 51.311 L 93.917 68.083 98.224 68.128 C 102.500 68.172,102.533 68.170,102.929 67.795 L 103.328 67.417 103.330 50.536 C 103.333 35.684,103.303 33.645,103.083 33.560 C 102.878 33.482,102.833 33.062,102.833 31.227 C 102.833 29.392,102.788 28.972,102.583 28.894 C 102.414 28.828,102.333 28.563,102.333 28.066 C 102.333 27.526,102.268 27.333,102.083 27.333 C 101.918 27.333,101.833 27.168,101.833 26.843 C 101.833 26.574,101.758 26.307,101.667 26.250 C 101.575 26.193,101.500 26.001,101.500 25.823 C 101.500 25.646,101.388 25.500,101.250 25.500 C 101.094 25.500,101.000 25.342,101.000 25.078 C 101.000 24.846,100.888 24.613,100.750 24.560 C 100.612 24.508,100.500 24.360,100.500 24.232 C 100.500 24.104,100.388 24.000,100.250 24.000 C 100.112 24.000,100.000 23.887,100.000 23.750 C 100.000 23.613,99.906 23.497,99.792 23.493 C 99.677 23.489,99.399 23.264,99.174 22.993 C 98.950 22.722,98.631 22.500,98.466 22.500 C 98.301 22.500,98.167 22.425,98.167 22.333 C 98.167 22.242,98.052 22.167,97.911 22.167 C 97.771 22.167,97.613 22.054,97.560 21.917 C 97.498 21.754,97.238 21.667,96.816 21.667 C 96.350 21.667,96.167 21.596,96.167 21.417 C 96.167 21.236,95.981 21.167,95.495 21.167 C 95.051 21.167,94.790 21.082,94.727 20.917 C 94.655 20.728,94.352 20.667,93.500 20.667 C 92.648 20.667,92.345 20.605,92.273 20.417 C 92.190 20.201,91.383 20.167,86.417 20.167 C 81.450 20.167,80.643 20.201,80.560 20.417 M124.440 20.417 C 124.237 20.620,123.644 20.667,121.268 20.667 C 117.665 20.667,117.979 20.274,118.038 24.704 L 118.083 28.083 118.730 28.136 C 119.086 28.166,119.457 28.109,119.555 28.011 C 119.660 27.906,120.494 27.833,121.585 27.833 C 122.955 27.833,123.520 27.770,123.760 27.589 C 124.016 27.395,124.715 27.343,127.130 27.339 C 129.681 27.334,130.193 27.293,130.273 27.083 C 130.354 26.872,130.898 26.833,133.750 26.833 C 136.602 26.833,137.146 26.872,137.227 27.083 C 137.302 27.280,137.645 27.333,138.840 27.333 C 139.966 27.333,140.422 27.398,140.607 27.583 C 140.745 27.721,141.110 27.833,141.419 27.833 C 141.728 27.833,142.027 27.908,142.083 28.000 C 142.140 28.092,142.332 28.167,142.510 28.167 C 142.688 28.167,142.833 28.261,142.833 28.377 C 142.833 28.493,142.996 28.662,143.195 28.752 C 143.393 28.843,143.637 29.067,143.736 29.250 C 143.836 29.433,143.963 29.621,144.019 29.667 C 144.076 29.712,144.174 29.919,144.239 30.125 C 144.303 30.331,144.426 30.500,144.511 30.500 C 144.597 30.500,144.667 31.102,144.667 31.839 C 144.667 32.875,144.723 33.199,144.917 33.273 C 145.127 33.354,145.167 33.873,145.167 36.518 L 145.167 39.667 136.745 39.667 C 129.412 39.667,128.310 39.699,128.227 39.917 C 128.149 40.120,127.747 40.167,126.060 40.167 C 124.373 40.167,123.972 40.213,123.894 40.417 C 123.823 40.600,123.535 40.667,122.816 40.667 C 122.054 40.667,121.833 40.723,121.833 40.917 C 121.833 41.097,121.648 41.167,121.167 41.167 C 120.800 41.167,120.500 41.242,120.500 41.333 C 120.500 41.425,120.310 41.500,120.078 41.500 C 119.846 41.500,119.613 41.612,119.560 41.750 C 119.508 41.887,119.283 42.000,119.060 42.000 C 118.838 42.000,118.613 42.112,118.560 42.250 C 118.508 42.387,118.360 42.500,118.232 42.500 C 118.104 42.500,118.000 42.612,118.000 42.750 C 118.000 42.887,117.925 43.000,117.833 43.000 C 117.742 43.000,117.667 43.112,117.667 43.250 C 117.667 43.387,117.554 43.500,117.417 43.500 C 117.279 43.500,117.167 43.612,117.167 43.750 C 117.167 43.887,117.054 44.000,116.917 44.000 C 116.779 44.000,116.667 44.104,116.667 44.232 C 116.667 44.360,116.554 44.508,116.417 44.560 C 116.279 44.613,116.167 44.801,116.167 44.977 C 116.167 45.153,116.054 45.341,115.917 45.394 C 115.752 45.457,115.667 45.718,115.667 46.161 C 115.667 46.648,115.598 46.833,115.417 46.833 C 115.231 46.833,115.167 47.028,115.167 47.583 C 115.167 47.996,115.092 48.333,115.000 48.333 C 114.892 48.333,114.833 50.306,114.833 53.917 C 114.833 57.528,114.892 59.500,115.000 59.500 C 115.092 59.500,115.167 59.915,115.167 60.422 C 115.167 61.088,115.236 61.370,115.417 61.440 C 115.580 61.502,115.667 61.762,115.667 62.184 C 115.667 62.650,115.737 62.833,115.917 62.833 C 116.083 62.833,116.167 63.000,116.167 63.333 C 116.167 63.667,116.250 63.833,116.417 63.833 C 116.554 63.833,116.667 63.946,116.667 64.083 C 116.667 64.221,116.779 64.333,116.917 64.333 C 117.072 64.333,117.167 64.491,117.167 64.750 C 117.167 65.009,117.261 65.167,117.417 65.167 C 117.554 65.167,117.667 65.279,117.667 65.417 C 117.667 65.554,117.771 65.667,117.899 65.667 C 118.027 65.667,118.174 65.779,118.227 65.917 C 118.280 66.054,118.475 66.167,118.661 66.167 C 118.851 66.167,119.000 66.276,119.000 66.417 C 119.000 66.583,119.167 66.667,119.500 66.667 C 119.833 66.667,120.000 66.750,120.000 66.917 C 120.000 67.083,120.167 67.167,120.500 67.167 C 120.833 67.167,121.000 67.250,121.000 67.417 C 121.000 67.598,121.187 67.667,121.679 67.667 C 122.060 67.667,122.467 67.776,122.607 67.917 C 122.769 68.078,123.181 68.167,123.774 68.167 C 124.366 68.167,124.779 68.255,124.940 68.417 C 125.311 68.787,138.104 68.792,138.593 68.422 C 138.780 68.281,139.289 68.175,139.797 68.172 C 140.422 68.168,140.705 68.094,140.773 67.917 C 140.836 67.753,141.095 67.667,141.523 67.667 C 141.951 67.667,142.210 67.580,142.273 67.417 C 142.326 67.279,142.548 67.167,142.768 67.167 C 143.011 67.167,143.167 67.069,143.167 66.917 C 143.167 66.750,143.333 66.667,143.667 66.667 C 144.000 66.667,144.167 66.583,144.167 66.417 C 144.167 66.279,144.279 66.167,144.417 66.167 C 144.554 66.167,144.667 66.054,144.667 65.917 C 144.667 65.779,144.779 65.667,144.917 65.667 C 145.113 65.667,145.167 65.897,145.167 66.744 C 145.167 68.206,145.038 68.167,149.864 68.164 L 153.917 68.161 154.294 67.763 L 154.672 67.365 154.627 50.988 C 154.593 38.066,154.539 34.596,154.375 34.542 C 154.220 34.490,154.167 33.776,154.167 31.731 C 154.167 29.448,154.125 28.973,153.917 28.894 C 153.737 28.825,153.667 28.543,153.667 27.894 C 153.667 27.244,153.596 26.963,153.417 26.894 C 153.277 26.840,153.167 26.592,153.167 26.333 C 153.167 26.074,153.056 25.827,152.917 25.773 C 152.779 25.720,152.667 25.525,152.667 25.339 C 152.667 25.152,152.592 25.000,152.500 25.000 C 152.408 25.000,152.333 24.810,152.333 24.578 C 152.333 24.346,152.221 24.113,152.083 24.060 C 151.946 24.008,151.833 23.860,151.833 23.732 C 151.833 23.604,151.764 23.500,151.680 23.500 C 151.596 23.500,151.215 23.200,150.833 22.833 C 150.432 22.448,149.977 22.167,149.754 22.167 C 149.542 22.167,149.326 22.054,149.273 21.917 C 149.214 21.762,148.960 21.667,148.606 21.667 C 148.253 21.667,147.999 21.572,147.940 21.417 C 147.870 21.236,147.588 21.167,146.922 21.167 C 146.214 21.167,146.000 21.109,146.000 20.917 C 146.000 20.714,145.733 20.667,144.601 20.667 C 143.512 20.667,143.181 20.611,143.106 20.417 C 143.023 20.199,141.839 20.167,133.850 20.167 C 125.930 20.167,124.657 20.201,124.440 20.417 M185.907 20.411 C 185.698 20.569,185.182 20.658,184.453 20.661 C 183.606 20.665,183.299 20.729,183.227 20.917 C 183.162 21.085,182.898 21.167,182.419 21.167 C 181.990 21.167,181.625 21.266,181.500 21.417 C 181.386 21.554,181.077 21.667,180.813 21.667 C 180.498 21.667,180.333 21.752,180.333 21.917 C 180.333 22.083,180.167 22.167,179.833 22.167 C 179.558 22.167,179.333 22.237,179.333 22.322 C 179.333 22.408,179.202 22.521,179.042 22.574 C 178.881 22.627,178.487 22.902,178.167 23.186 L 177.583 23.702 177.535 22.434 L 177.486 21.167 172.743 21.167 L 168.000 21.167 168.000 54.419 L 168.000 87.672 172.708 87.628 L 177.417 87.583 177.460 76.875 C 177.497 67.510,177.534 66.167,177.751 66.167 C 177.888 66.167,178.000 66.279,178.000 66.417 C 178.000 66.572,178.157 66.667,178.417 66.667 C 178.676 66.667,178.833 66.761,178.833 66.917 C 178.833 67.083,179.000 67.167,179.333 67.167 C 179.667 67.167,179.833 67.250,179.833 67.417 C 179.833 67.602,180.028 67.667,180.583 67.667 C 181.139 67.667,181.333 67.731,181.333 67.917 C 181.333 68.109,181.553 68.168,182.292 68.172 C 182.869 68.175,183.379 68.275,183.574 68.422 C 184.063 68.792,197.026 68.787,197.333 68.417 C 197.477 68.243,197.860 68.167,198.586 68.167 C 199.361 68.167,199.656 68.102,199.727 67.917 C 199.794 67.741,200.068 67.667,200.644 67.667 C 201.219 67.667,201.493 67.592,201.560 67.417 C 201.615 67.274,201.864 67.167,202.141 67.167 C 202.408 67.167,202.719 67.054,202.833 66.917 C 202.947 66.779,203.257 66.667,203.520 66.667 C 203.836 66.667,204.000 66.581,204.000 66.417 C 204.000 66.260,204.158 66.167,204.422 66.167 C 204.654 66.167,204.887 66.054,204.940 65.917 C 204.992 65.779,205.140 65.667,205.268 65.667 C 205.396 65.667,205.501 65.610,205.501 65.542 C 205.502 65.473,205.783 65.229,206.126 65.000 C 206.904 64.481,207.321 64.004,207.328 63.625 C 207.331 63.465,207.446 63.333,207.583 63.333 C 207.721 63.333,207.833 63.221,207.833 63.083 C 207.833 62.946,207.946 62.833,208.083 62.833 C 208.239 62.833,208.333 62.676,208.333 62.417 C 208.333 62.157,208.428 62.000,208.583 62.000 C 208.721 62.000,208.833 61.882,208.833 61.738 C 208.833 61.594,208.946 61.364,209.083 61.226 C 209.221 61.089,209.333 60.757,209.333 60.488 C 209.333 60.220,209.408 60.000,209.500 60.000 C 209.592 60.000,209.667 59.775,209.667 59.500 C 209.667 59.167,209.750 59.000,209.917 59.000 C 210.108 59.000,210.167 58.789,210.167 58.101 C 210.167 57.456,210.237 57.175,210.417 57.106 C 210.636 57.022,210.667 55.365,210.667 43.589 C 210.667 31.769,210.637 30.167,210.417 30.167 C 210.236 30.167,210.167 29.981,210.167 29.500 C 210.167 29.019,210.097 28.833,209.917 28.833 C 209.750 28.833,209.667 28.667,209.667 28.333 C 209.667 28.058,209.592 27.833,209.500 27.833 C 209.408 27.833,209.333 27.650,209.333 27.425 C 209.333 27.200,209.240 26.957,209.125 26.883 C 208.881 26.727,208.532 26.207,208.392 25.792 C 208.339 25.631,208.191 25.500,208.064 25.500 C 207.937 25.500,207.833 25.387,207.833 25.250 C 207.833 25.113,207.721 25.000,207.583 25.000 C 207.446 25.000,207.333 24.887,207.333 24.750 C 207.333 24.613,207.221 24.500,207.083 24.500 C 206.946 24.500,206.833 24.387,206.833 24.250 C 206.833 24.113,206.721 24.000,206.583 24.000 C 206.446 24.000,206.333 23.887,206.333 23.750 C 206.333 23.613,206.221 23.500,206.083 23.500 C 205.946 23.500,205.833 23.430,205.833 23.345 C 205.833 23.259,205.681 23.141,205.495 23.082 C 205.308 23.023,204.960 22.792,204.720 22.570 C 204.481 22.348,204.116 22.167,203.910 22.167 C 203.704 22.167,203.492 22.054,203.440 21.917 C 203.380 21.762,203.127 21.667,202.773 21.667 C 202.419 21.667,202.166 21.572,202.106 21.417 C 202.044 21.253,201.784 21.167,201.356 21.167 C 200.929 21.167,200.669 21.080,200.606 20.917 C 200.535 20.730,200.238 20.667,199.442 20.667 C 198.696 20.667,198.312 20.591,198.167 20.417 C 197.860 20.047,186.396 20.042,185.907 20.411 M288.227 20.417 C 288.155 20.605,287.850 20.667,286.982 20.667 C 286.072 20.667,285.833 20.719,285.833 20.917 C 285.833 21.109,285.620 21.167,284.911 21.167 C 284.246 21.167,283.963 21.236,283.894 21.417 C 283.831 21.580,283.572 21.667,283.149 21.667 C 282.683 21.667,282.500 21.737,282.500 21.917 C 282.500 22.083,282.333 22.167,282.000 22.167 C 281.725 22.167,281.500 22.234,281.500 22.315 C 281.500 22.397,281.313 22.511,281.083 22.568 C 280.854 22.626,280.667 22.747,280.667 22.837 C 280.667 22.926,280.571 23.000,280.454 23.000 C 280.215 23.000,279.667 23.582,279.667 23.835 C 279.667 23.926,279.554 24.000,279.417 24.000 C 279.279 24.000,279.167 24.113,279.167 24.250 C 279.167 24.387,279.054 24.500,278.917 24.500 C 278.779 24.500,278.667 24.616,278.667 24.757 C 278.667 25.010,278.540 25.205,277.958 25.845 C 277.798 26.022,277.667 26.285,277.667 26.429 C 277.667 26.573,277.554 26.803,277.417 26.940 C 277.279 27.078,277.167 27.373,277.167 27.595 C 277.167 27.818,277.092 28.000,277.000 28.000 C 276.908 28.000,276.833 28.300,276.833 28.667 C 276.833 29.148,276.764 29.333,276.583 29.333 C 276.394 29.333,276.333 29.538,276.333 30.179 C 276.333 30.708,276.240 31.117,276.083 31.274 C 275.865 31.492,275.833 33.254,275.833 45.095 C 275.833 57.048,275.863 58.667,276.083 58.667 C 276.275 58.667,276.333 58.880,276.333 59.583 C 276.333 60.287,276.391 60.500,276.583 60.500 C 276.769 60.500,276.833 60.694,276.833 61.250 C 276.833 61.663,276.908 62.000,277.000 62.000 C 277.092 62.000,277.167 62.152,277.167 62.339 C 277.167 62.525,277.272 62.718,277.402 62.767 C 277.531 62.817,277.682 63.040,277.738 63.262 C 277.794 63.485,277.913 63.667,278.003 63.667 C 278.093 63.667,278.167 63.782,278.167 63.922 C 278.167 64.062,278.279 64.220,278.417 64.273 C 278.554 64.326,278.667 64.473,278.667 64.601 C 278.667 64.729,278.745 64.833,278.841 64.833 C 278.937 64.833,279.190 65.021,279.402 65.250 C 279.614 65.479,279.948 65.667,280.144 65.667 C 280.349 65.667,280.500 65.772,280.500 65.917 C 280.500 66.054,280.641 66.167,280.813 66.167 C 280.985 66.167,281.219 66.279,281.333 66.417 C 281.447 66.554,281.757 66.667,282.020 66.667 C 282.336 66.667,282.500 66.752,282.500 66.917 C 282.500 67.074,282.659 67.167,282.929 67.167 C 283.164 67.167,283.470 67.279,283.607 67.417 C 283.745 67.555,284.153 67.667,284.517 67.667 C 284.950 67.667,285.210 67.753,285.273 67.917 C 285.343 68.099,285.630 68.167,286.337 68.167 C 286.964 68.167,287.330 68.240,287.375 68.375 C 287.490 68.720,306.410 68.764,306.934 68.421 C 307.161 68.272,307.696 68.167,308.224 68.167 C 308.822 68.167,309.196 68.083,309.333 67.917 C 309.453 67.772,309.817 67.667,310.192 67.667 C 310.618 67.667,310.877 67.580,310.940 67.417 C 311.002 67.254,311.262 67.167,311.684 67.167 C 312.150 67.167,312.333 67.096,312.333 66.917 C 312.333 66.750,312.500 66.667,312.833 66.667 C 313.167 66.667,313.333 66.583,313.333 66.417 C 313.333 66.276,313.482 66.167,313.672 66.167 C 313.858 66.167,314.054 66.054,314.106 65.917 C 314.159 65.779,314.279 65.667,314.374 65.667 C 314.468 65.667,314.719 65.479,314.931 65.250 C 315.144 65.021,315.396 64.833,315.492 64.833 C 315.588 64.833,315.667 64.729,315.667 64.601 C 315.667 64.473,315.779 64.326,315.917 64.273 C 316.054 64.220,316.167 63.987,316.167 63.755 C 316.167 63.491,316.260 63.333,316.417 63.333 C 316.554 63.333,316.667 63.193,316.667 63.020 C 316.667 62.848,316.779 62.614,316.917 62.500 C 317.054 62.386,317.167 62.156,317.167 61.989 C 317.167 61.823,317.242 61.640,317.333 61.583 C 317.425 61.527,317.500 61.260,317.500 60.990 C 317.500 60.666,317.584 60.500,317.750 60.500 C 317.934 60.500,318.000 60.308,318.000 59.770 C 318.000 59.325,318.097 58.960,318.250 58.833 C 318.436 58.679,318.500 58.266,318.500 57.218 C 318.500 56.188,318.567 55.742,318.750 55.560 C 318.967 55.343,319.000 53.924,319.000 44.842 C 319.000 35.741,318.967 34.347,318.750 34.167 C 318.560 34.009,318.500 33.582,318.500 32.391 C 318.500 31.151,318.448 30.803,318.250 30.727 C 318.080 30.662,318.000 30.395,318.000 29.894 C 318.000 29.392,317.920 29.126,317.750 29.060 C 317.596 29.001,317.500 28.748,317.500 28.399 C 317.500 28.088,317.425 27.833,317.333 27.833 C 317.242 27.833,317.167 27.643,317.167 27.411 C 317.167 27.179,317.054 26.946,316.917 26.894 C 316.779 26.841,316.667 26.616,316.667 26.394 C 316.667 26.171,316.554 25.946,316.417 25.894 C 316.279 25.841,316.167 25.618,316.167 25.399 C 316.167 25.155,316.069 25.000,315.917 25.000 C 315.779 25.000,315.667 24.887,315.667 24.750 C 315.667 24.613,315.554 24.500,315.417 24.500 C 315.279 24.500,315.167 24.387,315.167 24.250 C 315.167 24.113,315.054 24.000,314.917 24.000 C 314.779 24.000,314.667 23.913,314.667 23.806 C 314.667 23.520,313.463 22.500,313.125 22.500 C 312.965 22.500,312.833 22.425,312.833 22.333 C 312.833 22.242,312.608 22.167,312.333 22.167 C 312.000 22.167,311.833 22.083,311.833 21.917 C 311.833 21.736,311.648 21.667,311.167 21.667 C 310.685 21.667,310.500 21.597,310.500 21.417 C 310.500 21.234,310.308 21.165,309.792 21.161 C 309.402 21.158,308.938 21.046,308.760 20.911 C 308.563 20.763,308.064 20.667,307.489 20.667 C 306.849 20.667,306.473 20.585,306.333 20.417 C 306.154 20.200,304.933 20.167,297.224 20.167 C 289.466 20.167,288.311 20.199,288.227 20.417 M303.574 27.089 C 303.751 27.223,304.188 27.333,304.544 27.333 C 304.899 27.333,305.303 27.446,305.440 27.583 C 305.578 27.721,305.910 27.833,306.179 27.833 C 306.447 27.833,306.667 27.908,306.667 28.000 C 306.667 28.092,306.779 28.167,306.917 28.167 C 307.054 28.167,307.167 28.279,307.167 28.417 C 307.167 28.554,307.279 28.667,307.417 28.667 C 307.554 28.667,307.667 28.779,307.667 28.917 C 307.667 29.054,307.779 29.167,307.917 29.167 C 308.083 29.167,308.167 29.333,308.167 29.667 C 308.167 29.942,308.242 30.167,308.333 30.167 C 308.425 30.167,308.500 30.467,308.500 30.833 C 308.500 31.315,308.569 31.500,308.750 31.500 C 308.970 31.500,309.000 33.063,309.000 44.566 C 309.000 56.026,308.969 57.643,308.750 57.727 C 308.585 57.790,308.500 58.051,308.500 58.495 C 308.500 58.864,308.425 59.167,308.333 59.167 C 308.242 59.167,308.167 59.245,308.167 59.341 C 308.167 59.509,307.873 59.814,306.933 60.625 C 306.693 60.831,306.356 61.000,306.183 61.000 C 306.010 61.000,305.826 61.112,305.773 61.250 C 305.713 61.407,305.457 61.500,305.083 61.500 C 304.709 61.500,304.454 61.593,304.394 61.750 C 304.318 61.948,303.969 62.000,302.727 62.000 C 301.484 62.000,301.136 62.052,301.060 62.250 C 300.979 62.462,300.387 62.500,297.149 62.500 C 293.868 62.500,293.333 62.465,293.333 62.250 C 293.333 62.045,293.039 62.000,291.684 62.000 C 290.373 62.000,290.016 61.949,289.940 61.750 C 289.880 61.595,289.627 61.500,289.273 61.500 C 288.919 61.500,288.666 61.405,288.606 61.250 C 288.554 61.112,288.358 61.000,288.172 61.000 C 287.986 61.000,287.533 60.700,287.167 60.333 C 286.800 59.967,286.425 59.667,286.333 59.667 C 286.242 59.667,286.167 59.477,286.167 59.245 C 286.167 59.013,286.054 58.780,285.917 58.727 C 285.755 58.665,285.667 58.406,285.667 57.992 C 285.667 57.641,285.592 57.307,285.500 57.250 C 285.391 57.183,285.333 52.835,285.333 44.750 C 285.333 36.665,285.391 32.317,285.500 32.250 C 285.592 32.193,285.667 31.812,285.667 31.402 C 285.667 30.893,285.746 30.626,285.917 30.560 C 286.054 30.508,286.167 30.294,286.167 30.086 C 286.167 29.878,286.279 29.614,286.417 29.500 C 286.554 29.386,286.667 29.152,286.667 28.980 C 286.667 28.807,286.779 28.667,286.917 28.667 C 287.054 28.667,287.167 28.554,287.167 28.417 C 287.167 28.279,287.312 28.167,287.490 28.167 C 287.668 28.167,287.860 28.092,287.917 28.000 C 287.973 27.908,288.160 27.833,288.331 27.833 C 288.503 27.833,288.755 27.721,288.893 27.583 C 289.050 27.426,289.460 27.333,289.993 27.333 C 290.596 27.333,290.872 27.260,290.940 27.083 C 291.082 26.713,303.083 26.718,303.574 27.089 M194.407 27.589 C 194.597 27.732,195.095 27.833,195.615 27.833 C 196.102 27.833,196.500 27.908,196.500 28.000 C 196.500 28.092,196.762 28.167,197.083 28.167 C 197.404 28.167,197.667 28.244,197.667 28.337 C 197.667 28.431,197.854 28.580,198.083 28.667 C 198.313 28.754,198.500 28.902,198.500 28.996 C 198.500 29.090,198.688 29.167,198.917 29.167 C 199.213 29.167,199.333 29.257,199.333 29.480 C 199.333 29.652,199.446 29.886,199.583 30.000 C 199.721 30.114,199.833 30.311,199.833 30.437 C 199.833 30.563,199.946 30.667,200.083 30.667 C 200.249 30.667,200.333 30.832,200.333 31.157 C 200.333 31.426,200.408 31.693,200.500 31.750 C 200.592 31.807,200.667 32.218,200.667 32.665 C 200.667 33.164,200.763 33.572,200.917 33.726 C 201.240 34.050,201.301 55.761,200.979 55.868 C 200.876 55.903,200.753 56.323,200.707 56.802 C 200.661 57.281,200.558 57.714,200.478 57.763 C 200.399 57.813,200.333 58.028,200.333 58.242 C 200.333 58.456,200.221 58.674,200.083 58.727 C 199.946 58.780,199.833 59.013,199.833 59.245 C 199.833 59.477,199.748 59.667,199.644 59.667 C 199.540 59.667,199.281 59.854,199.069 60.083 C 198.856 60.313,198.576 60.500,198.445 60.500 C 198.314 60.500,198.114 60.612,198.000 60.750 C 197.886 60.887,197.582 61.000,197.325 61.000 C 197.068 61.000,196.745 61.112,196.607 61.250 C 196.452 61.405,196.043 61.500,195.530 61.500 C 194.948 61.500,194.674 61.574,194.606 61.750 C 194.462 62.125,184.268 62.125,183.893 61.750 C 183.727 61.584,183.311 61.500,182.655 61.500 C 181.888 61.500,181.667 61.444,181.667 61.250 C 181.667 61.083,181.500 61.000,181.167 61.000 C 180.892 61.000,180.667 60.930,180.667 60.845 C 180.667 60.759,180.505 60.638,180.307 60.575 C 180.110 60.512,179.782 60.282,179.580 60.064 C 179.377 59.845,179.135 59.667,179.041 59.667 C 178.946 59.667,178.822 59.479,178.765 59.250 C 178.707 59.021,178.587 58.833,178.497 58.833 C 178.407 58.833,178.333 58.616,178.333 58.351 C 178.333 58.076,178.226 57.828,178.083 57.773 C 177.903 57.704,177.833 57.421,177.833 56.755 C 177.833 56.248,177.758 55.833,177.667 55.833 C 177.557 55.833,177.500 52.059,177.500 44.843 C 177.500 37.696,177.558 33.817,177.667 33.750 C 177.758 33.693,177.833 33.164,177.833 32.573 C 177.833 31.730,177.887 31.500,178.083 31.500 C 178.240 31.500,178.333 31.342,178.333 31.078 C 178.333 30.846,178.446 30.613,178.583 30.560 C 178.721 30.508,178.833 30.285,178.833 30.066 C 178.833 29.822,178.931 29.667,179.083 29.667 C 179.221 29.667,179.333 29.554,179.333 29.417 C 179.333 29.279,179.446 29.167,179.583 29.167 C 179.721 29.167,179.833 29.054,179.833 28.917 C 179.833 28.761,179.991 28.667,180.250 28.667 C 180.509 28.667,180.667 28.572,180.667 28.417 C 180.667 28.250,180.833 28.167,181.167 28.167 C 181.442 28.167,181.667 28.092,181.667 28.000 C 181.667 27.908,182.065 27.833,182.551 27.833 C 183.071 27.833,183.570 27.732,183.760 27.589 C 184.028 27.386,184.945 27.344,189.083 27.344 C 193.222 27.344,194.139 27.386,194.407 27.589 M145.167 51.980 C 145.167 56.795,145.130 57.656,144.917 57.833 C 144.757 57.966,144.667 58.334,144.667 58.854 C 144.667 59.301,144.597 59.667,144.513 59.667 C 144.313 59.667,143.333 60.646,143.333 60.846 C 143.333 60.931,143.108 61.000,142.833 61.000 C 142.500 61.000,142.333 61.083,142.333 61.250 C 142.333 61.439,142.129 61.500,141.495 61.500 C 140.903 61.500,140.628 61.574,140.560 61.750 C 140.484 61.949,140.127 62.000,138.816 62.000 C 137.461 62.000,137.167 62.045,137.167 62.250 C 137.167 62.465,136.648 62.500,133.500 62.500 C 130.352 62.500,129.833 62.465,129.833 62.250 C 129.833 62.052,129.593 62.000,128.667 62.000 C 127.741 62.000,127.500 61.948,127.500 61.750 C 127.500 61.583,127.333 61.500,127.000 61.500 C 126.725 61.500,126.500 61.426,126.500 61.337 C 126.500 61.247,126.313 61.126,126.083 61.068 C 125.854 61.011,125.667 60.859,125.667 60.732 C 125.667 60.604,125.554 60.500,125.417 60.500 C 125.276 60.500,125.167 60.351,125.167 60.161 C 125.167 59.975,125.054 59.780,124.917 59.727 C 124.774 59.672,124.667 59.424,124.667 59.149 C 124.667 58.831,124.581 58.667,124.417 58.667 C 124.225 58.667,124.167 58.454,124.167 57.750 C 124.167 57.246,124.092 56.833,124.000 56.833 C 123.895 56.833,123.833 55.750,123.833 53.917 C 123.833 52.083,123.895 51.000,124.000 51.000 C 124.092 51.000,124.167 50.561,124.167 50.018 C 124.167 49.299,124.234 49.010,124.417 48.940 C 124.554 48.887,124.667 48.654,124.667 48.422 C 124.667 48.190,124.740 48.000,124.830 48.000 C 124.920 48.000,125.041 47.813,125.098 47.583 C 125.172 47.288,125.316 47.167,125.592 47.167 C 125.805 47.167,126.027 47.092,126.083 47.000 C 126.140 46.908,126.355 46.833,126.561 46.833 C 126.768 46.833,127.082 46.723,127.260 46.589 C 127.535 46.381,128.909 46.343,136.375 46.339 L 145.167 46.333 145.167 51.980 " stroke="none" fill="#fcfcfc" fill-rule="evenodd"></path><path id="path1" d="M193.957 95.679 L 188.331 101.333 94.332 101.333 C 10.889 101.333,0.333 101.361,0.333 101.583 C 0.333 101.721,0.258 101.833,0.167 101.833 C 0.069 101.833,0.000 102.417,0.000 103.250 C 0.000 104.083,0.069 104.667,0.167 104.667 C 0.258 104.667,0.333 104.779,0.333 104.917 C 0.333 105.139,10.898 105.167,94.417 105.167 C 152.496 105.167,188.500 105.226,188.500 105.322 C 188.500 105.408,188.657 105.527,188.850 105.589 C 189.229 105.709,189.644 106.095,189.934 106.598 C 190.035 106.773,190.274 106.940,190.465 106.969 C 190.702 107.004,190.830 107.164,190.865 107.467 C 190.897 107.743,191.034 107.936,191.223 107.972 C 191.571 108.038,192.167 108.582,192.167 108.833 C 192.167 108.925,192.242 109.000,192.333 109.000 C 192.585 109.000,193.129 109.595,193.195 109.943 C 193.231 110.135,193.424 110.270,193.710 110.303 C 194.064 110.344,194.167 110.444,194.167 110.750 C 194.167 111.004,194.291 111.184,194.516 111.255 C 194.709 111.316,195.001 111.501,195.167 111.667 C 195.332 111.832,195.517 112.124,195.578 112.317 C 195.650 112.542,195.829 112.667,196.083 112.667 C 196.390 112.667,196.490 112.769,196.531 113.125 C 196.572 113.485,196.682 113.595,197.042 113.636 C 197.304 113.666,197.500 113.791,197.500 113.928 C 197.500 114.059,197.575 114.167,197.667 114.167 C 197.758 114.167,197.833 114.279,197.833 114.417 C 197.833 114.554,197.946 114.667,198.083 114.667 C 198.221 114.667,198.333 114.779,198.333 114.917 C 198.333 115.054,198.446 115.167,198.583 115.167 C 198.722 115.167,198.833 115.315,198.833 115.500 C 198.833 115.765,198.944 115.833,199.375 115.831 C 200.167 115.828,200.667 115.660,200.667 115.397 C 200.667 115.270,200.779 115.167,200.917 115.167 C 201.054 115.167,201.167 115.054,201.167 114.917 C 201.167 114.779,201.279 114.667,201.417 114.667 C 201.554 114.667,201.667 114.554,201.667 114.417 C 201.667 114.279,201.779 114.167,201.917 114.167 C 202.054 114.167,202.167 114.054,202.167 113.917 C 202.167 113.779,202.279 113.667,202.417 113.667 C 202.554 113.667,202.667 113.554,202.667 113.417 C 202.667 113.279,202.779 113.167,202.917 113.167 C 203.054 113.167,203.167 113.086,203.167 112.988 C 203.167 112.757,203.591 112.333,203.821 112.333 C 203.920 112.333,204.000 112.221,204.000 112.083 C 204.000 111.946,204.112 111.833,204.250 111.833 C 204.387 111.833,204.500 111.721,204.500 111.583 C 204.500 111.446,204.612 111.333,204.750 111.333 C 204.887 111.333,205.000 111.221,205.000 111.083 C 205.000 110.946,205.112 110.833,205.250 110.833 C 205.387 110.833,205.500 110.721,205.500 110.583 C 205.500 110.446,205.612 110.333,205.750 110.333 C 205.887 110.333,206.000 110.253,206.000 110.155 C 206.000 109.924,206.424 109.500,206.655 109.500 C 206.753 109.500,206.833 109.388,206.833 109.250 C 206.833 109.112,206.946 109.000,207.083 109.000 C 207.221 109.000,207.333 108.888,207.333 108.750 C 207.333 108.612,207.446 108.500,207.583 108.500 C 207.721 108.500,207.833 108.388,207.833 108.250 C 207.833 108.112,207.946 108.000,208.083 108.000 C 208.221 108.000,208.333 107.888,208.333 107.750 C 208.333 107.612,208.446 107.500,208.583 107.500 C 208.721 107.500,208.833 107.388,208.833 107.250 C 208.833 107.112,208.946 107.000,209.083 107.000 C 209.221 107.000,209.333 106.920,209.333 106.821 C 209.333 106.591,209.757 106.167,209.988 106.167 C 210.086 106.167,210.167 106.054,210.167 105.917 C 210.167 105.779,210.279 105.667,210.417 105.667 C 210.554 105.667,210.667 105.554,210.667 105.417 C 210.667 105.195,221.285 105.167,305.231 105.167 L 399.794 105.167 399.895 104.792 C 400.025 104.306,400.025 102.194,399.895 101.708 L 399.794 101.333 305.647 101.333 C 244.213 101.333,211.500 101.277,211.500 101.170 C 211.500 101.080,211.313 100.959,211.083 100.902 C 210.854 100.844,210.667 100.730,210.667 100.649 C 210.667 100.567,210.559 100.500,210.428 100.500 C 210.297 100.500,210.166 100.331,210.137 100.125 C 210.107 99.919,209.926 99.681,209.734 99.597 C 209.542 99.512,209.305 99.231,209.207 98.972 C 209.109 98.712,208.906 98.500,208.757 98.500 C 208.607 98.500,208.310 98.313,208.098 98.083 C 207.886 97.854,207.627 97.667,207.523 97.667 C 207.418 97.667,207.333 97.554,207.333 97.417 C 207.333 97.279,207.226 97.167,207.094 97.167 C 206.958 97.167,206.833 96.971,206.803 96.708 C 206.766 96.387,206.643 96.235,206.391 96.199 C 206.175 96.168,205.992 95.989,205.932 95.752 C 205.877 95.534,205.675 95.306,205.483 95.245 C 205.036 95.103,204.564 94.631,204.422 94.183 C 204.350 93.958,204.171 93.833,203.917 93.833 C 203.611 93.833,203.510 93.731,203.469 93.376 C 203.437 93.097,203.301 92.898,203.120 92.863 C 202.734 92.790,201.210 91.266,201.137 90.880 C 201.102 90.699,200.903 90.563,200.624 90.531 C 200.362 90.500,200.167 90.375,200.167 90.239 C 200.167 89.573,199.128 90.483,193.957 95.679 " stroke="none" fill="#2cdcb4" fill-rule="evenodd"></path><path id="path2" d="" stroke="none" fill="#100ecd8" fill-rule="evenodd"></path><path id="path3" d="" stroke="none" fill="#100ecd8" fill-rule="evenodd"></path><path id="path4" d="" stroke="none" fill="#100ecd8" fill-rule="evenodd"></path></g></svg>